<svg width="305" height="50">
 <g font-family="Arial" font-weight="bold" font-size="66.5">
  <text fill="#00BB00" x="0" y="0"  transform="matrix(0.53,0,0,0.032,2,49)">A</text>
  <text fill="#F9A500" x="0" y="0"  transform="matrix(0.55,0,0,0.067,0,47.4)">G</text>
  <text fill="#0000EE" x="0" y="0"  transform="matrix(0.59,0,0,0.100,0,44.05)">C</text>
  <text fill="#DD0000" x="0" y="0"  transform="matrix(0.65,0,0,0.801,1,39.05)">T</text>
  
  <text fill="#0000EE" x="0" y="0"  transform="matrix(0.59,0,0,0.006,25,49)">C</text>
  <text fill="#F9A500" x="0" y="0"  transform="matrix(0.55,0,0,0.018,25,48.7)">G</text>
  <text fill="#00BB00" x="0" y="0"  transform="matrix(0.53,0,0,0.104,27,47.8)">A</text>
  <text fill="#DD0000" x="0" y="0"  transform="matrix(0.65,0,0,0.872,26,42.6)">T</text>
  
  <text fill="#00BB00" x="0" y="0"  transform="matrix(0.53,0,0,0.006,52,49)">A</text>
  <text fill="#DD0000" x="0" y="0"  transform="matrix(0.65,0,0,0.135,51,48.7)">T</text>
  <text fill="#0000EE" x="0" y="0"  transform="matrix(0.59,0,0,0.299,50,41.95)">C</text>
  <text fill="#F9A500" x="0" y="0"  transform="matrix(0.55,0,0,0.560,50,27)">G</text>
  
  <text fill="#0000EE" x="0" y="0"  transform="matrix(0.59,0,0,0.002,75,49)">C</text>
  <text fill="#00BB00" x="0" y="0"  transform="matrix(0.53,0,0,0.018,77,48.9)">A</text>
  <text fill="#F9A500" x="0" y="0"  transform="matrix(0.55,0,0,0.024,75,48)">G</text>
  <text fill="#DD0000" x="0" y="0"  transform="matrix(0.65,0,0,0.956,76,46.8)">T</text>
  
  <text fill="#0000EE" x="0" y="0"  transform="matrix(0.59,0,0,0.012,100,49)">C</text>
  <text fill="#00BB00" x="0" y="0"  transform="matrix(0.53,0,0,0.255,102,48.4)">A</text>
  <text fill="#DD0000" x="0" y="0"  transform="matrix(0.65,0,0,0.335,101,35.65)">T</text>
  <text fill="#F9A500" x="0" y="0"  transform="matrix(0.55,0,0,0.398,100,18.9)">G</text>
  
  <text fill="#DD0000" x="0" y="0"  transform="matrix(0.65,0,0,0.061,126,49)">T</text>
  <text fill="#00BB00" x="0" y="0"  transform="matrix(0.53,0,0,0.080,127,45.95)">A</text>
  <text fill="#F9A500" x="0" y="0"  transform="matrix(0.55,0,0,0.273,125,41.95)">G</text>
  <text fill="#0000EE" x="0" y="0"  transform="matrix(0.59,0,0,0.586,125,28.3)">C</text>
  
  <text fill="#DD0000" x="0" y="0"  transform="matrix(0.65,0,0,0.012,151,49)">T</text>
  <text fill="#00BB00" x="0" y="0"  transform="matrix(0.53,0,0,0.055,152,48.4)">A</text>
  <text fill="#F9A500" x="0" y="0"  transform="matrix(0.55,0,0,0.230,150,45.65)">G</text>
  <text fill="#0000EE" x="0" y="0"  transform="matrix(0.59,0,0,0.703,150,34.15)">C</text>
  
  <text fill="#0000EE" x="0" y="0"  transform="matrix(0.59,0,0,0.012,175,49)">C</text>
  <text fill="#F9A500" x="0" y="0"  transform="matrix(0.55,0,0,0.024,175,48.4)">G</text>
  <text fill="#00BB00" x="0" y="0"  transform="matrix(0.53,0,0,0.308,177,47.2)">A</text>
  <text fill="#DD0000" x="0" y="0"  transform="matrix(0.65,0,0,0.656,176,31.8)">T</text>
  
  <text fill="#0000EE" x="0" y="0"  transform="matrix(0.59,0,0,0.002,200,49)">C</text>
  <text fill="#F9A500" x="0" y="0"  transform="matrix(0.55,0,0,0.006,200,48.9)">G</text>
  <text fill="#00BB00" x="0" y="0"  transform="matrix(0.53,0,0,0.293,202,48.6)">A</text>
  <text fill="#DD0000" x="0" y="0"  transform="matrix(0.65,0,0,0.699,201,33.95)">T</text>
  
  <text fill="#F9A500" x="0" y="0"  transform="matrix(0.55,0,0,0.012,225,49)">G</text>
  <text fill="#DD0000" x="0" y="0"  transform="matrix(0.65,0,0,0.018,226,48.4)">T</text>
  <text fill="#00BB00" x="0" y="0"  transform="matrix(0.53,0,0,0.447,227,47.5)">A</text>
  <text fill="#0000EE" x="0" y="0"  transform="matrix(0.59,0,0,0.523,225,25.15)">C</text>
  
  <text fill="#00BB00" x="0" y="0"  transform="matrix(0.53,0,0,0.051,252,49)">A</text>
  <text fill="#F9A500" x="0" y="0"  transform="matrix(0.55,0,0,0.055,250,46.45)">G</text>
  <text fill="#0000EE" x="0" y="0"  transform="matrix(0.59,0,0,0.304,250,43.7)">C</text>
  <text fill="#DD0000" x="0" y="0"  transform="matrix(0.65,0,0,0.590,251,28.5)">T</text>
  
  <text fill="#00BB00" x="0" y="0"  transform="matrix(0.53,0,0,0.020,277,49)">A</text>
  <text fill="#DD0000" x="0" y="0"  transform="matrix(0.65,0,0,0.048,276,48)">T</text>
  <text fill="#0000EE" x="0" y="0"  transform="matrix(0.59,0,0,0.440,275,45.6)">C</text>
  <text fill="#F9A500" x="0" y="0"  transform="matrix(0.55,0,0,0.492,275,23.6)">G</text>
  
 </g>
</svg>
